<?xml version="1.0" encoding="utf-8"?>
<!-- Generator: Adobe Illustrator 19.0.0, SVG Export Plug-In . SVG Version: 6.00 Build 0)  -->
<svg version="1.0" id="Layer_1" xmlns="http://www.w3.org/2000/svg" xmlns:xlink="http://www.w3.org/1999/xlink" x="0px" y="0px"
	 viewBox="-954 536 10 9" style="enable-background:new -954 536 10 9;" xml:space="preserve">
<style type="text/css">
	.st0{fill:#FFFFFF;}
</style>
<path class="st0" d="M-946.1,541.5c1.2-0.3,2-1,2-1.8v-1.7c0-1.1-1.8-2.1-3.9-2.1c-2.2,0-3.9,0.9-3.9,2.1v1.1c-1.2,0.4-2,1.1-2,1.8
	v1.7c0,1.2,1.8,2.1,3.9,2.1s3.9-1,3.9-2.1V541.5z M-951.5,540.7c0.7,0.6,2,1.1,3.4,1.1c0.1,0,0.3,0,0.4,0v0.6
	c-0.3,0.2-1.1,0.6-2.4,0.6s-2.1-0.4-2.4-0.6v-1.3c0.1-0.1,0.2-0.1,0.4-0.2C-951.9,540.8-951.7,540.8-951.5,540.7z"/>
</svg>
